<?xml version="1.0" encoding="UTF-8"?>
<svg xmlns="http://www.w3.org/2000/svg" width="1024" height="1024" viewBox="0 0 1024 1024">
<line x1="169.09" y1="83.11" x2="169.09" y2="964.89" stroke="black" stroke-width="3.27"/>
<line x1="267.06" y1="83.11" x2="267.06" y2="964.89" stroke="black" stroke-width="3.27"/>
<line x1="365.04" y1="83.11" x2="365.04" y2="964.89" stroke="black" stroke-width="3.27"/>
<line x1="463.01" y1="83.11" x2="463.01" y2="964.89" stroke="black" stroke-width="3.27"/>
<line x1="560.99" y1="83.11" x2="560.99" y2="964.89" stroke="black" stroke-width="3.27"/>
<line x1="658.96" y1="83.11" x2="658.96" y2="964.89" stroke="black" stroke-width="3.27"/>
<line x1="756.94" y1="83.11" x2="756.94" y2="964.89" stroke="black" stroke-width="3.27"/>
<line x1="854.91" y1="83.11" x2="854.91" y2="964.89" stroke="black" stroke-width="3.27"/>
<line x1="952.89" y1="83.11" x2="952.89" y2="964.89" stroke="black" stroke-width="8.16"/>
<line x1="71.11" y1="181.09" x2="952.89" y2="181.09" stroke="black" stroke-width="3.27"/>
<line x1="71.11" y1="279.06" x2="952.89" y2="279.06" stroke="black" stroke-width="3.27"/>
<line x1="71.11" y1="377.04" x2="952.89" y2="377.04" stroke="black" stroke-width="3.27"/>
<line x1="71.11" y1="475.01" x2="952.89" y2="475.01" stroke="black" stroke-width="3.27"/>
<line x1="71.11" y1="572.99" x2="952.89" y2="572.99" stroke="black" stroke-width="3.27"/>
<line x1="71.11" y1="670.96" x2="952.89" y2="670.96" stroke="black" stroke-width="3.27"/>
<line x1="71.11" y1="768.94" x2="952.89" y2="768.94" stroke="black" stroke-width="3.27"/>
<line x1="71.11" y1="866.91" x2="952.89" y2="866.91" stroke="black" stroke-width="3.27"/>
<line x1="71.11" y1="964.89" x2="952.89" y2="964.89" stroke="black" stroke-width="8.16"/>
<circle cx="71.11" cy="83.11" r="9.80" fill="black" />
<circle cx="71.11" cy="670.96" r="9.80" fill="black" />
<circle cx="658.96" cy="83.11" r="9.80" fill="black" />
<circle cx="658.96" cy="670.96" r="9.80" fill="black" />
<circle cx="658.96" cy="768.94" r="44.62" fill="black" stroke="black" stroke-width="3.77"/>
<circle cx="169.09" cy="768.94" r="44.62" fill="black" stroke="black" stroke-width="3.77"/>
<circle cx="658.96" cy="670.96" r="44.62" fill="black" stroke="black" stroke-width="3.77"/>
<circle cx="756.94" cy="768.94" r="43.11" fill="white" stroke="black" stroke-width="3.77"/>
</svg>