<?xml version="1.0" encoding="UTF-8"?>
<svg xmlns="http://www.w3.org/2000/svg" width="1024" height="1024" viewBox="0 0 1024 1024">
<line x1="170.50" y1="86.93" x2="170.50" y2="965.07" stroke="black" stroke-width="3.25"/>
<line x1="268.07" y1="86.93" x2="268.07" y2="965.07" stroke="black" stroke-width="3.25"/>
<line x1="365.64" y1="86.93" x2="365.64" y2="965.07" stroke="black" stroke-width="3.25"/>
<line x1="463.21" y1="86.93" x2="463.21" y2="965.07" stroke="black" stroke-width="3.25"/>
<line x1="560.79" y1="86.93" x2="560.79" y2="965.07" stroke="black" stroke-width="3.25"/>
<line x1="658.36" y1="86.93" x2="658.36" y2="965.07" stroke="black" stroke-width="3.25"/>
<line x1="755.93" y1="86.93" x2="755.93" y2="965.07" stroke="black" stroke-width="3.25"/>
<line x1="853.50" y1="86.93" x2="853.50" y2="965.07" stroke="black" stroke-width="3.25"/>
<line x1="951.07" y1="86.93" x2="951.07" y2="965.07" stroke="black" stroke-width="8.13"/>
<line x1="72.93" y1="184.50" x2="951.07" y2="184.50" stroke="black" stroke-width="3.25"/>
<line x1="72.93" y1="282.07" x2="951.07" y2="282.07" stroke="black" stroke-width="3.25"/>
<line x1="72.93" y1="379.64" x2="951.07" y2="379.64" stroke="black" stroke-width="3.25"/>
<line x1="72.93" y1="477.21" x2="951.07" y2="477.21" stroke="black" stroke-width="3.25"/>
<line x1="72.93" y1="574.79" x2="951.07" y2="574.79" stroke="black" stroke-width="3.25"/>
<line x1="72.93" y1="672.36" x2="951.07" y2="672.36" stroke="black" stroke-width="3.25"/>
<line x1="72.93" y1="769.93" x2="951.07" y2="769.93" stroke="black" stroke-width="3.25"/>
<line x1="72.93" y1="867.50" x2="951.07" y2="867.50" stroke="black" stroke-width="3.25"/>
<line x1="72.93" y1="965.07" x2="951.07" y2="965.07" stroke="black" stroke-width="8.13"/>
<circle cx="72.93" cy="86.93" r="9.76" fill="black" />
<circle cx="72.93" cy="672.36" r="9.76" fill="black" />
<circle cx="658.36" cy="86.93" r="9.76" fill="black" />
<circle cx="658.36" cy="672.36" r="9.76" fill="black" />
<circle cx="658.36" cy="574.79" r="44.43" fill="black" stroke="black" stroke-width="1.00"/>
<circle cx="853.50" cy="769.93" r="44.43" fill="black" stroke="black" stroke-width="1.00"/>
<circle cx="853.50" cy="477.21" r="44.43" fill="black" stroke="black" stroke-width="1.00"/>
<circle cx="72.93" cy="672.36" r="44.43" fill="black" stroke="black" stroke-width="1.00"/>
<circle cx="658.36" cy="769.93" r="44.43" fill="black" stroke="black" stroke-width="1.00"/>
<circle cx="853.50" cy="672.36" r="44.43" fill="black" stroke="black" stroke-width="1.00"/>
<circle cx="560.79" cy="379.64" r="44.43" fill="black" stroke="black" stroke-width="1.00"/>
<circle cx="755.93" cy="574.79" r="44.43" fill="black" stroke="black" stroke-width="1.00"/>
<circle cx="658.36" cy="672.36" r="44.43" fill="black" stroke="black" stroke-width="1.00"/>
<circle cx="72.93" cy="769.93" r="42.93" fill="white" stroke="black" stroke-width="3.75"/>
<circle cx="755.93" cy="769.93" r="42.93" fill="white" stroke="black" stroke-width="3.75"/>
<circle cx="755.93" cy="477.21" r="42.93" fill="white" stroke="black" stroke-width="3.75"/>
<circle cx="951.07" cy="477.21" r="42.93" fill="white" stroke="black" stroke-width="3.75"/>
<circle cx="658.36" cy="184.50" r="42.93" fill="white" stroke="black" stroke-width="3.75"/>
<circle cx="853.50" cy="379.64" r="42.93" fill="white" stroke="black" stroke-width="3.75"/>
<circle cx="755.93" cy="672.36" r="42.93" fill="white" stroke="black" stroke-width="3.75"/>
<circle cx="853.50" cy="574.79" r="42.93" fill="white" stroke="black" stroke-width="3.75"/>
<circle cx="170.50" cy="769.93" r="44.43" fill="black" stroke="black" stroke-width="1.00"/>
<text x="170.50" y="788.93" font-size="53.7" text-anchor="middle" dy="0em" fill="white" font-weight="normal" font-family="Helvetica,Arial,sans-serif">1</text>
</svg>